# Blender v2.77 (sub 0) OBJ File: ''
# www.blender.org
mtllib ZBlueArrow.mtl
o zBlueArrow_xRedArrow_XArrow_Red_XArrow_Cube.003
v 0.087146 0.087146 0.762778
v -0.087146 0.087146 0.762778
v 0.087146 -0.087146 0.762778
v -0.087146 -0.087146 0.762778
v 0.122583 -0.000000 0.762778
v -0.000000 0.122583 0.762778
v -0.000000 -0.122583 0.762778
v -0.122583 -0.000000 0.762778
v 0.117151 -0.048678 0.762778
v -0.048678 0.117151 0.762778
v -0.048678 -0.117151 0.762778
v -0.117151 -0.048678 0.762778
v 0.117151 0.048678 0.762778
v 0.048678 0.117151 0.762778
v 0.048678 -0.117151 0.762778
v -0.117151 0.048678 0.762778
v 0.055566 0.057096 0.925702
v -0.055566 0.057096 0.925702
v 0.055566 -0.054036 0.925702
v -0.055566 -0.054036 0.925702
v 0.078161 0.001530 0.925702
v -0.000000 0.079691 0.925702
v -0.000000 -0.076631 0.925702
v -0.078161 0.001530 0.925702
v 0.073356 -0.028951 0.925702
v -0.030481 0.074886 0.925702
v -0.030481 -0.071826 0.925702
v -0.073356 -0.028951 0.925702
v 0.073356 0.032011 0.925702
v 0.030481 0.074886 0.925702
v 0.030481 -0.071826 0.925702
v -0.073356 0.032011 0.925702
v -0.000000 0.000000 1.281765
v 0.016889 0.016889 0.791587
v -0.016889 0.016889 0.791587
v 0.016889 -0.016889 0.791587
v -0.016889 -0.016889 0.791587
v 0.023757 -0.000000 0.791587
v -0.000000 0.023757 0.791587
v -0.000000 -0.023757 0.791587
v -0.023757 -0.000000 0.791587
v 0.022704 -0.009434 0.791587
v -0.009434 0.022704 0.791587
v -0.009434 -0.022705 0.791587
v -0.022705 -0.009434 0.791587
v 0.022704 0.009434 0.791587
v 0.009434 0.022704 0.791587
v 0.009434 -0.022705 0.791587
v -0.022705 0.009434 0.791587
v 0.008072 0.008072 0.162068
v -0.008072 0.008072 0.162068
v 0.008072 -0.008072 0.162068
v -0.008072 -0.008072 0.162068
v 0.011354 0.000000 0.162068
v -0.000000 0.011354 0.162068
v -0.000000 -0.011354 0.162068
v -0.011354 0.000000 0.162068
v 0.010851 -0.004509 0.162068
v -0.004509 0.010851 0.162068
v -0.004509 -0.010851 0.162068
v -0.010851 -0.004509 0.162068
v 0.010851 0.004509 0.162068
v 0.004509 0.010851 0.162068
v 0.004509 -0.010851 0.162068
v -0.010851 0.004509 0.162068
v 0.005515 0.005515 0.049614
v -0.005515 0.005515 0.049614
v 0.005515 -0.005515 0.049614
v -0.005515 -0.005515 0.049614
v 0.007757 0.000000 0.049614
v -0.000000 0.007758 0.049614
v -0.000000 -0.007757 0.049614
v -0.007758 0.000000 0.049614
v 0.007414 -0.003081 0.049614
v -0.003081 0.007414 0.049614
v -0.003081 -0.007414 0.049614
v -0.007414 -0.003081 0.049614
v 0.007414 0.003081 0.049614
v 0.003081 0.007414 0.049614
v 0.003081 -0.007414 0.049614
v -0.007414 0.003081 0.049614
v 0.000000 0.000000 0.000236
v -0.000000 0.128523 0.766366
v 0.050558 0.121674 0.766366
v 0.091369 0.091369 0.766366
v 0.121674 0.050558 0.766366
v 0.050558 -0.121674 0.766366
v -0.000000 -0.128523 0.766366
v -0.128523 -0.000000 0.766366
v -0.121674 0.050558 0.766366
v 0.091369 -0.091369 0.766366
v 0.121674 -0.050558 0.766366
v -0.091369 0.091369 0.766366
v -0.050558 0.121674 0.766366
v 0.128523 -0.000000 0.766366
v -0.050558 -0.121674 0.766366
v -0.091369 -0.091369 0.766366
v -0.121674 -0.050558 0.766366
v 0.044320 -0.106661 0.777182
v 0.079343 -0.079343 0.777182
v -0.106661 0.044320 0.777182
v -0.111607 -0.000000 0.777182
v 0.106661 -0.044320 0.777182
v -0.079343 0.079343 0.777182
v 0.111607 -0.000000 0.777182
v -0.044320 0.106661 0.777182
v -0.000000 0.111607 0.777182
v -0.079343 -0.079343 0.777182
v -0.044320 -0.106661 0.777182
v -0.000000 -0.111607 0.777182
v -0.106661 -0.044320 0.777182
v 0.106661 0.044320 0.777182
v 0.079343 0.079343 0.777182
v 0.044320 0.106661 0.777182
vt 0.6726 0.0289
vt 0.7302 0.0205
vt 0.7649 0.2136
vt 0.7275 0.2190
vt 0.0946 0.6506
vt 0.0424 0.6363
vt 0.1125 0.4461
vt 0.1471 0.4554
vt 0.3582 0.6719
vt 0.2991 0.6597
vt 0.3502 0.4609
vt 0.3889 0.4690
vt 0.0000 0.6239
vt 0.0853 0.4380
vt 0.6282 0.6767
vt 0.5701 0.6685
vt 0.5961 0.4655
vt 0.6339 0.4707
vt 0.2492 0.6461
vt 0.3171 0.4520
vt 0.2492 0.6861
vt 0.2090 0.6781
vt 0.2217 0.4734
vt 0.2486 0.4788
vt 0.6726 0.6799
vt 0.6636 0.4730
vt 0.7896 0.0107
vt 0.8412 0.0000
vt 0.8380 0.2001
vt 0.8038 0.2071
vt 0.1532 0.6650
vt 0.1854 0.4650
vt 0.4603 0.6864
vt 0.4159 0.6820
vt 0.4265 0.4755
vt 0.4561 0.4786
vt 0.5107 0.6585
vt 0.4603 0.6471
vt 0.5238 0.4514
vt 0.5572 0.4589
vt 0.4603 0.0000
vt 0.6726 0.0000
vt 0.2492 0.0000
vt 0.8412 0.6639
vt 0.6885 0.9529
vt 0.6438 0.9810
vt 0.6138 0.8716
vt 0.6233 0.8656
vt 0.4785 0.8219
vt 0.4909 0.7675
vt 0.5813 0.8262
vt 0.5786 0.8377
vt 0.7255 0.9139
vt 0.6312 0.8573
vt 0.5279 0.7285
vt 0.5891 0.8179
vt 0.7379 0.8595
vt 0.6338 0.8457
vt 0.5727 0.7004
vt 0.5987 0.8119
vt 0.6249 0.7017
vt 0.6098 0.8121
vt 0.5407 0.9661
vt 0.5041 0.9261
vt 0.5841 0.8599
vt 0.5919 0.8684
vt 0.5915 0.9797
vt 0.6027 0.8713
vt 0.4776 0.8779
vt 0.5784 0.8497
vt 0.7388 0.8035
vt 0.6340 0.8338
vt 0.7123 0.7553
vt 0.6284 0.8236
vt 0.6757 0.7153
vt 0.6206 0.8151
vt 0.9779 0.0001
vt 0.9891 0.0000
vt 0.9948 0.7916
vt 0.9895 0.7917
vt 0.8492 0.9881
vt 0.8412 0.9890
vt 0.8459 0.2018
vt 0.8497 0.2013
vt 0.8602 0.9877
vt 0.8550 0.2011
vt 0.9683 0.9897
vt 0.9589 0.9890
vt 0.9614 0.2015
vt 0.9659 0.2018
vt 0.9477 0.9889
vt 0.9561 0.2015
vt 0.9104 0.9939
vt 0.8992 0.9941
vt 0.8953 0.2030
vt 0.9007 0.2029
vt 0.9203 0.9941
vt 0.9054 0.2030
vt 1.0000 0.0001
vt 1.0000 0.7917
vt 0.9287 0.9943
vt 0.9094 0.2031
vt 0.8714 0.9876
vt 0.8603 0.2011
vt 0.8808 0.9882
vt 0.8648 0.2014
vt 0.9367 0.9890
vt 0.9508 0.2015
vt 0.8885 0.9890
vt 0.8685 0.2018
vt 0.9287 0.9897
vt 0.9470 0.2018
vt 0.8885 0.9943
vt 0.8902 0.2031
vt 0.9683 0.0006
vt 0.9849 0.7919
vt 0.8579 0.0608
vt 0.8609 0.0610
vt 0.9541 0.0610
vt 0.9577 0.0610
vt 0.8635 0.0612
vt 0.9515 0.0612
vt 0.8915 0.0618
vt 0.8949 0.0617
vt 0.9919 0.9332
vt 0.9888 0.9334
vt 0.9956 0.9332
vt 0.8480 0.0612
vt 0.8506 0.0609
vt 0.8542 0.0608
vt 0.9614 0.0610
vt 0.9644 0.0612
vt 0.8986 0.0617
vt 0.9018 0.0617
vt 0.9992 0.9332
vt 0.9046 0.0618
vt 0.8961 0.0000
vt 0.9950 0.9959
vt 0.8546 0.0000
vt 0.9591 0.0000
vt 0.9862 0.9336
vt 0.4677 0.8190
vt 0.4667 0.8805
vt 0.4607 0.8824
vt 0.4603 0.8182
vt 0.7526 0.8604
vt 0.7536 0.7988
vt 0.7586 0.7975
vt 0.7590 0.8616
vt 0.5361 0.9774
vt 0.5918 0.9923
vt 0.5905 1.0000
vt 0.5327 0.9829
vt 0.4959 0.9335
vt 0.4898 0.9383
vt 0.6285 0.6870
vt 0.5711 0.6856
vt 0.5691 0.6799
vt 0.6289 0.6799
vt 0.7390 0.9201
vt 0.7435 0.9234
vt 0.5219 0.7164
vt 0.5172 0.7107
vt 0.4813 0.7593
vt 0.4758 0.7564
vt 0.6984 0.9629
vt 0.7022 0.9691
vt 0.6492 0.9938
vt 0.6502 1.0000
vt 0.7245 0.7458
vt 0.6843 0.7020
vt 0.6866 0.6969
vt 0.7295 0.7416
vt 0.7595 0.8444
vt 0.7590 0.7827
vt 0.7769 0.7844
vt 0.7773 0.8405
vt 0.7957 0.7935
vt 0.7976 0.8538
vt 0.7819 0.8472
vt 0.7801 0.7923
vt 0.0338 0.6861
vt 0.0332 0.7477
vt 0.0175 0.7462
vt 0.0180 0.6901
vt 0.0164 0.7406
vt 0.0167 0.8021
vt 0.0002 0.7996
vt 0.0000 0.7436
vt 0.0175 0.6861
vt 0.0009 0.6940
vt 0.7595 0.7229
vt 0.7773 0.7299
vt 0.7619 0.6799
vt 0.7795 0.6907
vt 0.7950 0.7318
vt 0.7795 0.7362
vt 0.7976 0.6799
vt 0.7819 0.6889
vt 0.0338 0.8080
vt 0.0180 0.8011
vt 0.0175 0.8611
vt 0.0009 0.8533
vt 0.7619 0.8973
vt 0.7795 0.8887
vn 0.3643 0.8780 -0.3104
vn -0.0000 0.9463 -0.3233
vn -0.0045 0.9662 0.2579
vn 0.3628 0.8925 0.2679
vn 0.8786 0.3608 -0.3130
vn 0.6688 0.6744 -0.3128
vn 0.6836 0.6805 0.2637
vn 0.8949 0.3614 0.2620
vn 0.0032 -0.9493 -0.3142
vn 0.3639 -0.8817 -0.3002
vn 0.3607 -0.8922 0.2716
vn -0.0035 -0.9656 0.2602
vn -0.8791 0.3636 -0.3082
vn -0.9477 -0.0005 -0.3193
vn -0.9655 -0.0039 0.2603
vn -0.8916 0.3640 0.2692
vn 0.6757 -0.6701 -0.3071
vn 0.6799 -0.6830 0.2671
vn 0.8840 -0.3565 -0.3024
vn 0.8911 -0.3645 0.2703
vn -0.6673 0.6745 -0.3158
vn -0.6816 0.6823 0.2646
vn -0.3541 0.8822 -0.3104
vn -0.3628 0.8925 0.2679
vn 0.9504 0.0038 -0.3109
vn 0.9645 -0.0021 0.2640
vn -0.6759 -0.6686 -0.3101
vn -0.3558 -0.8850 -0.3002
vn -0.3656 -0.8903 0.2716
vn -0.6816 -0.6809 0.2680
vn -0.8836 -0.3551 -0.3053
vn -0.8919 -0.3620 0.2711
vn -0.0054 0.0019 1.0000
vn -0.3780 0.3743 -0.8468
vn -0.2105 0.5103 -0.8339
vn 0.2081 -0.5064 -0.8368
vn 0.4290 -0.4254 -0.7968
vn 0.5335 -0.0037 -0.8458
vn 0.5068 -0.2060 -0.8371
vn -0.5086 0.2110 -0.8347
vn -0.6035 -0.0000 -0.7974
vn -0.5089 0.2038 -0.8363
vn 0.5119 -0.2059 -0.8340
vn 0.3755 -0.3755 -0.8473
vn -0.4239 0.4285 -0.7979
vn -0.5315 -0.0026 -0.8471
vn 0.6077 0.0025 -0.7942
vn 0.2060 -0.5068 -0.8371
vn -0.2049 0.5111 -0.8347
vn 0.0000 -0.5306 -0.8476
vn 0.0033 0.6063 -0.7952
vn 0.2038 0.5089 -0.8363
vn 0.3755 0.3755 -0.8473
vn -0.4285 -0.4239 -0.7979
vn -0.2059 -0.5119 -0.8340
vn -0.0026 0.5315 -0.8471
vn 0.0025 -0.6077 -0.7942
vn 0.5068 0.2060 -0.8371
vn -0.5111 -0.2049 -0.8347
vn -0.5068 -0.2091 -0.8363
vn 0.5099 0.2108 -0.8340
vn -0.3743 -0.3780 -0.8468
vn 0.4254 0.4290 -0.7968
vn -0.2060 -0.5068 -0.8371
vn 0.2110 0.5086 -0.8347
vn 0.0045 0.9997 -0.0258
vn -0.3770 0.9257 -0.0315
vn -0.7101 -0.7037 -0.0259
vn -0.3737 -0.9273 -0.0237
vn 0.0035 -0.9997 -0.0230
vn -0.9276 -0.3727 -0.0267
vn -0.9997 0.0045 -0.0258
vn 0.9996 0.0028 -0.0294
vn 0.9245 0.3805 -0.0237
vn 0.7044 0.7094 -0.0231
vn 0.3815 0.9240 -0.0267
vn 0.3805 -0.9245 -0.0237
vn 0.7094 -0.7044 -0.0231
vn -0.9240 0.3815 -0.0267
vn 0.9273 -0.3737 -0.0237
vn -0.7037 0.7101 -0.0259
vn 0.3781 -0.9204 -0.0998
vn 0.7067 -0.7016 -0.0909
vn -0.9200 0.3800 -0.0958
vn -0.9952 -0.0000 -0.0979
vn 0.9235 -0.3721 -0.0929
vn -0.7007 0.7073 -0.0938
vn 0.9959 0.0036 -0.0905
vn -0.3711 0.9237 -0.0958
vn 0.0046 0.9956 -0.0933
vn -0.7073 -0.7007 -0.0938
vn -0.3721 -0.9235 -0.0929
vn 0.0036 -0.9959 -0.0905
vn -0.9237 -0.3711 -0.0958
vn 0.9207 0.3791 -0.0929
vn 0.7016 0.7067 -0.0909
vn 0.3800 0.9200 -0.0958
vn -0.0078 0.0028 -1.0000
vn 0.1146 0.0053 -0.9934
vn 0.0469 0.0200 -0.9987
vn -0.1197 0.0029 -0.9928
vn -0.0404 -0.0128 -0.9991
vn 0.0218 0.0458 -0.9987
vn 0.0042 0.1119 -0.9937
vn 0.0816 0.0816 -0.9933
vn 0.0053 -0.1146 -0.9934
vn 0.0200 -0.0469 -0.9987
vn -0.0458 0.0218 -0.9987
vn 0.0816 -0.0816 -0.9933
vn 0.0469 -0.0200 -0.9987
vn -0.0791 0.0830 -0.9934
vn -0.0179 0.0474 -0.9987
vn -0.0830 -0.0790 -0.9934
vn -0.0200 -0.0469 -0.9987
usemtl zBlue
s 1
f 84/1/1 83/2/2 22/3/3 30/4/4
f 86/5/5 85/6/6 17/7/7 29/8/8
f 88/9/9 87/10/10 31/11/11 23/12/12
f 85/6/6 84/13/1 30/14/4 17/7/7
f 90/15/13 89/16/14 24/17/15 32/18/16
f 87/10/10 91/19/17 19/20/18 31/11/11
f 91/21/17 92/22/19 25/23/20 19/24/18
f 93/25/21 90/15/13 32/18/16 18/26/22
f 94/27/23 93/28/21 18/29/22 26/30/24
f 92/22/19 95/31/25 21/32/26 25/23/20
f 97/33/27 96/34/28 27/35/29 20/36/30
f 83/2/2 94/27/23 26/30/24 22/3/3
f 98/37/31 97/38/27 20/39/30 28/40/32
f 96/34/28 88/9/9 23/12/12 27/35/29
f 95/31/25 86/5/5 29/8/8 21/32/26
f 89/16/14 98/37/31 28/40/32 24/17/15
f 27/35/29 23/12/12 33/41/33
f 28/40/32 20/39/30 33/42/33
f 24/17/15 28/40/32 33/42/33
f 21/32/26 29/8/8 33/43/33
f 29/8/8 17/7/7 33/43/33
f 30/4/4 22/3/3 33/44/33
f 17/7/7 30/14/4 33/43/33
f 23/12/12 31/11/11 33/41/33
f 31/11/11 19/20/18 33/41/33
f 32/18/16 24/17/15 33/42/33
f 19/24/18 25/23/20 33/43/33
f 18/26/22 32/18/16 33/42/33
f 25/23/20 21/32/26 33/43/33
f 26/30/24 18/29/22 33/44/33
f 22/3/3 26/30/24 33/44/33
f 20/36/30 27/35/29 33/41/33
f 100/45/34 99/46/35 48/47/36 36/48/37
f 102/49/38 101/50/39 49/51/40 41/52/41
f 103/53/42 100/45/34 36/48/37 42/54/43
f 101/50/39 104/55/44 35/56/45 49/51/40
f 105/57/46 103/53/42 42/54/43 38/58/47
f 104/55/44 106/59/48 43/60/49 35/56/45
f 106/59/48 107/61/50 39/62/51 43/60/49
f 109/63/52 108/64/53 37/65/54 44/66/55
f 110/67/56 109/63/52 44/66/55 40/68/57
f 108/64/53 111/69/58 45/70/59 37/65/54
f 111/69/58 102/49/38 41/52/41 45/70/59
f 112/71/60 105/57/46 38/58/47 46/72/61
f 113/73/62 112/71/60 46/72/61 34/74/63
f 107/61/50 114/75/64 47/76/65 39/62/51
f 114/75/64 113/73/62 34/74/63 47/76/65
f 99/46/35 110/67/56 40/68/57 48/47/36
f 43/77/49 39/78/51 55/79/66 59/80/67
f 44/81/55 37/82/54 53/83/68 60/84/69
f 40/85/57 44/81/55 60/84/69 56/86/70
f 37/87/54 45/88/59 61/89/71 53/90/68
f 45/88/59 41/91/41 57/92/72 61/89/71
f 46/93/61 38/94/47 54/95/73 62/96/74
f 34/97/63 46/93/61 62/96/74 50/98/75
f 39/78/51 47/99/65 63/100/76 55/79/66
f 47/101/65 34/97/63 50/98/75 63/102/76
f 48/103/36 40/85/57 56/86/70 64/104/77
f 36/105/37 48/103/36 64/104/77 52/106/78
f 41/91/41 49/107/40 65/108/79 57/92/72
f 42/109/43 36/105/37 52/106/78 58/110/80
f 49/107/40 35/111/45 51/112/81 65/108/79
f 38/94/47 42/113/43 58/114/80 54/95/73
f 35/115/45 43/77/49 59/80/67 51/116/81
f 52/106/78 64/104/77 80/117/82 68/118/83
f 57/92/72 65/108/79 81/119/84 73/120/85
f 58/110/80 52/106/78 68/118/83 74/121/86
f 65/108/79 51/112/81 67/122/87 81/119/84
f 54/95/73 58/114/80 74/123/86 70/124/88
f 51/116/81 59/80/67 75/125/89 67/126/87
f 59/80/67 55/79/66 71/127/90 75/125/89
f 60/84/69 53/83/68 69/128/91 76/129/92
f 56/86/70 60/84/69 76/129/92 72/130/93
f 53/90/68 61/89/71 77/131/94 69/132/91
f 61/89/71 57/92/72 73/120/85 77/131/94
f 62/96/74 54/95/73 70/124/88 78/133/95
f 50/98/75 62/96/74 78/133/95 66/134/96
f 55/79/66 63/100/76 79/135/97 71/127/90
f 63/102/76 50/98/75 66/134/96 79/136/97
f 64/104/77 56/86/70 72/130/93 80/117/82
f 66/134/96 78/133/95 82/137/98
f 71/127/90 79/135/97 82/138/98
f 79/136/97 66/134/96 82/137/98
f 80/117/82 72/130/93 82/139/98
f 68/118/83 80/117/82 82/139/98
f 73/120/85 81/119/84 82/140/98
f 74/121/86 68/118/83 82/139/98
f 81/141/84 67/126/87 82/138/98
f 70/124/88 74/123/86 82/137/98
f 67/126/87 75/125/89 82/138/98
f 75/125/89 71/127/90 82/138/98
f 76/129/92 69/128/91 82/139/98
f 72/130/93 76/129/92 82/139/98
f 69/132/91 77/131/94 82/140/98
f 77/131/94 73/120/85 82/140/98
f 78/133/95 70/124/88 82/137/98
f 8/142/99 12/143/100 98/144/31 89/145/14
f 5/146/101 13/147/102 86/148/5 95/149/25
f 11/150/103 7/151/104 88/152/9 96/153/28
f 12/143/100 4/154/105 97/155/27 98/144/31
f 6/156/106 10/157/107 94/158/23 83/159/2
f 4/154/105 11/150/103 96/153/28 97/155/27
f 9/160/108 5/146/101 95/149/25 92/161/19
f 10/157/107 2/162/109 93/163/21 94/158/23
f 2/162/109 16/164/110 90/165/13 93/163/21
f 3/166/111 9/160/108 92/161/19 91/167/17
f 15/168/112 3/166/111 91/167/17 87/169/10
f 16/164/110 8/142/99 89/145/14 90/165/13
f 1/170/113 14/171/114 84/172/1 85/173/6
f 7/151/104 15/168/112 87/169/10 88/152/9
f 13/147/102 1/170/113 85/173/6 86/148/5
f 14/171/114 6/156/106 83/159/2 84/172/1
f 15/174/112 7/175/104 110/176/56 99/177/35
f 14/171/114 1/170/113 113/73/62 114/75/64
f 6/178/106 14/179/114 114/180/64 107/181/50
f 1/170/113 13/147/102 112/71/60 113/73/62
f 13/182/102 5/183/101 105/184/46 112/185/60
f 12/186/100 8/187/99 102/188/38 111/189/58
f 4/190/105 12/186/100 111/189/58 108/191/53
f 7/175/104 11/192/103 109/193/52 110/176/56
f 11/192/103 4/194/105 108/195/53 109/193/52
f 10/196/107 6/178/106 107/181/50 106/197/48
f 2/198/109 10/196/107 106/197/48 104/199/44
f 5/183/101 9/200/108 103/201/42 105/184/46
f 16/164/110 2/162/109 104/55/44 101/50/39
f 9/160/108 3/166/111 100/45/34 103/53/42
f 8/187/99 16/202/110 101/203/39 102/188/38
f 3/204/111 15/174/112 99/177/35 100/205/34
