# Blender v2.79 (sub 0) OBJ File: 'Arrow.blend'
# www.blender.org
mtllib Arrow.mtl
o Arrow_Cube.001
v 3.512877 -0.436083 1.000000
v -0.515991 -0.436083 1.000000
v 3.512877 -0.436083 -1.000000
v -0.515991 -0.436083 -1.000000
v 3.512878 1.010960 1.000000
v -0.515991 1.010960 1.000000
v 3.512878 1.010960 -1.000000
v -0.515991 1.010960 -1.000000
v -0.515991 -0.436083 2.630534
v -0.515991 -0.436083 -2.630534
v -0.515991 1.010960 2.630534
v -0.515991 1.010960 -2.630534
v -4.961791 -0.436084 0.000000
v -4.961791 1.010960 0.000000
vt 0.870807 0.061923
vt 0.735865 0.370140
vt 0.570346 0.308217
vt 0.705288 0.000000
vt 0.129193 1.000000
vt 0.129193 0.679292
vt 0.258385 0.679292
vt 0.258385 1.000000
vt 0.435404 0.061923
vt 0.300461 0.370140
vt 0.134942 0.308217
vt 0.269885 0.000000
vt 0.000000 1.000000
vt 0.000000 0.679292
vt 0.129193 0.679292
vt 0.129193 1.000000
vt 0.258385 0.679292
vt 0.387578 0.679292
vt 0.387578 0.844352
vt 0.258385 0.844352
vt 0.645963 0.679292
vt 0.645963 0.813860
vt 0.516770 0.813860
vt 0.516770 0.679292
vt 0.387578 0.813860
vt 0.387578 0.679292
vt 0.516770 0.679292
vt 0.516770 0.813860
vt 0.068795 0.679292
vt 0.435404 0.420624
vt 0.870807 0.420624
vt 0.504199 0.679292
vt 0.870807 0.411206
vt 0.870807 0.000000
vt 1.000000 0.000000
vt 1.000000 0.411206
vt 0.435404 0.257734
vt 0.000000 0.257734
vt 0.870807 0.822411
vt 0.870807 0.411206
vt 1.000000 0.411206
vt 1.000000 0.822411
vn 0.0000 -1.0000 0.0000
vn -0.0000 0.0000 -1.0000
vn -0.0000 1.0000 0.0000
vn 0.0000 0.0000 1.0000
vn 1.0000 -0.0000 0.0000
vn -0.5092 0.0000 0.8606
vn -0.5092 0.0000 -0.8606
usemtl arrowMaterial
s off
f 1/1/1 2/2/1 4/3/1 3/4/1
f 3/5/2 4/6/2 8/7/2 7/8/2
f 7/9/3 8/10/3 6/11/3 5/12/3
f 5/13/4 6/14/4 2/15/4 1/16/4
f 3/17/5 7/18/5 5/19/5 1/20/5
f 6/21/5 11/22/5 9/23/5 2/24/5
f 4/25/5 10/26/5 12/27/5 8/28/5
f 8/10/3 14/29/3 6/11/3
f 12/30/3 14/29/3 8/10/3
f 9/31/1 13/32/1 2/2/1
f 2/2/1 13/32/1 4/3/1
f 11/33/6 14/34/6 13/35/6 9/36/6
f 4/3/1 13/32/1 10/37/1
f 6/11/3 14/29/3 11/38/3
f 10/39/7 13/40/7 14/41/7 12/42/7
