# Blender v2.79 (sub 0) OBJ File: 'XArrow.blend'
# www.blender.org
mtllib XArrow.mtl
o XArrow_Cube.002
v 0.004500 -0.004500 0.004500
v 0.004500 -0.004500 -0.004500
v 0.004500 0.004500 0.004500
v 0.004500 0.004500 -0.004500
v 0.195000 -0.004500 0.004500
v 0.195000 -0.004500 -0.004500
v 0.195000 0.004500 0.004500
v 0.195000 0.004500 -0.004500
v 0.195000 0.045000 0.045000
v 0.195000 -0.045000 -0.045000
v 0.195000 -0.045000 0.045000
v 0.195000 0.045000 -0.045000
v 0.285000 0.000000 0.000000
vt 0.635438 0.326793
vt 0.635438 0.359472
vt 0.602296 0.359472
vt 0.602296 0.326793
vt 0.966858 0.000000
vt 1.000000 0.000000
vt 1.000000 0.673207
vt 0.966858 0.673207
vt 0.784577 0.147057
vt 0.751435 0.147057
vt 0.602296 0.000000
vt 0.933716 0.000000
vt 0.867432 0.326793
vt 0.900574 0.326793
vt 0.900574 1.000000
vt 0.867432 1.000000
vt 0.966858 0.673207
vt 0.933716 0.673207
vt 0.933716 0.000000
vt 0.966858 0.000000
vt 0.900574 0.326793
vt 0.933716 0.326793
vt 0.933716 1.000000
vt 0.900574 1.000000
vt 0.784577 0.179736
vt 0.933716 0.326793
vt 0.632568 0.782671
vt 0.331420 0.646224
vt 0.632568 0.391336
vt 0.751435 0.179736
vt 0.602296 0.326793
vt 0.331420 0.746927
vt 0.000000 0.746927
vt 0.165710 0.391336
vt 0.301148 0.391336
vt 0.000000 0.254889
vt 0.301148 0.000000
vt 0.301148 0.136448
vt 0.602296 0.000000
vt 0.602296 0.391336
vn -1.0000 -0.0000 -0.0000
vn -0.0000 1.0000 0.0000
vn 0.0000 -0.0000 -1.0000
vn 0.0000 -1.0000 0.0000
vn -0.0000 -0.0000 1.0000
vn 0.4472 0.0000 0.8944
vn 0.4472 -0.0000 -0.8944
vn 0.4472 -0.8944 0.0000
vn 0.4472 0.8944 0.0000
usemtl xRed
s off
f 2/1/1 1/2/1 3/3/1 4/4/1
f 4/5/2 3/6/2 7/7/2 8/8/2
f 6/9/1 8/10/1 12/11/1 10/12/1
f 2/13/3 4/14/3 8/15/3 6/16/3
f 1/17/4 2/18/4 6/19/4 5/20/4
f 3/21/5 1/22/5 5/23/5 7/24/5
f 5/25/1 6/9/1 10/12/1 11/26/1
f 9/27/6 11/28/6 13/29/6
f 8/10/1 7/30/1 9/31/1 12/11/1
f 7/30/1 5/25/1 11/26/1 9/31/1
f 10/32/7 12/33/7 13/34/7
f 11/35/8 10/36/8 13/37/8
f 12/38/9 9/39/9 13/40/9
