# Blender v2.79 (sub 0) OBJ File: 'YArrow.blend'
# www.blender.org
mtllib YArrow.mtl
o YArrow_Cube.004
v 0.004500 0.004500 -0.004500
v 0.004500 0.004500 0.004500
v -0.004500 0.004500 0.004500
v -0.004500 0.004500 -0.004500
v 0.004500 0.195000 -0.004500
v 0.004500 0.195000 0.004500
v -0.004500 0.195000 -0.004500
v -0.004500 0.195000 0.004500
v 0.045000 0.195000 -0.045000
v 0.045000 0.195000 0.045000
v -0.045000 0.195000 -0.045000
v -0.045000 0.195000 0.045000
v -0.000000 0.285000 0.000000
vt 0.906503 0.000000
vt 0.937669 0.000000
vt 0.937669 0.632391
vt 0.906503 0.632391
vt 0.031166 0.367609
vt 0.062331 0.367609
vt 0.062331 0.398307
vt 0.031166 0.398307
vt 0.766258 0.138141
vt 0.735092 0.138141
vt 0.594846 0.000000
vt 0.906503 0.000000
vt 1.000000 0.632391
vt 0.968834 0.632391
vt 0.968834 0.000000
vt 1.000000 0.000000
vt 0.000000 0.367609
vt 0.031166 1.000000
vt 0.000000 1.000000
vt 0.968834 0.000000
vt 0.968834 0.632391
vt 0.594846 0.334032
vt 0.283190 0.334032
vt 0.439018 0.000000
vt 0.735092 0.168839
vt 0.766258 0.168839
vt 0.906503 0.306979
vt 0.594846 0.306979
vt 0.878036 0.668064
vt 0.566380 0.668064
vt 0.722208 0.334032
vt 0.000000 0.128175
vt 0.283190 0.000000
vt 0.283190 0.367609
vt 0.566380 0.701641
vt 0.283190 0.573466
vt 0.566380 0.334032
vn 0.0000 0.0000 -1.0000
vn 0.0000 -1.0000 -0.0000
vn -0.0000 -0.0000 1.0000
vn 1.0000 0.0000 0.0000
vn -1.0000 -0.0000 -0.0000
vn -0.0000 0.4472 0.8944
vn 0.8944 0.4472 0.0000
vn -0.8944 0.4472 -0.0000
vn 0.0000 0.4472 -0.8944
usemtl YArrow
s off
f 1/1/1 4/2/1 7/3/1 5/4/1
f 1/5/2 2/6/2 3/7/2 4/8/2
f 6/9/2 5/10/2 9/11/2 10/12/2
f 3/13/3 2/14/3 6/15/3 8/16/3
f 2/17/4 1/5/4 5/18/4 6/19/4
f 4/2/5 3/20/5 8/21/5 7/3/5
f 12/22/6 10/23/6 13/24/6
f 7/25/2 8/26/2 12/27/2 11/28/2
f 5/10/2 7/25/2 11/28/2 9/11/2
f 8/26/2 6/9/2 10/12/2 12/27/2
f 10/29/7 9/30/7 13/31/7
f 11/32/8 12/33/8 13/34/8
f 9/35/9 11/36/9 13/37/9
